<svg version="1.1" baseProfile="full" xmlns="http://www.w3.org/2000/svg" style="width: 100%; height: 100%; background: rgba(255, 255, 255, 0);" viewBox="0 0 200 100" width="200" height="100"><g id="canvasPenStrokes"><path d="M 57.5,34 C 57.7,33.8 57.9,33.2 58.5, 33 C 59.1,32.8 59.3,33.2 60.5, 33 C 61.7,32.8 62.1,32.2 64.5, 32 C 66.9,31.8 68.9,32 72.5, 32 C 76.1,32 78.9,32 82.5, 32 C 86.1,32 86.9,32 90.5, 32 C 94.1,32 95.9,32 100.5, 32 C 105.1,32 108.1,31.8 113.5, 32 C 118.9,32.2 122.3,32.4 127.5, 33 C 132.7,33.6 135.1,34.2 139.5, 35 C 143.9,35.8 146.1,36.2 149.5, 37 C 152.9,37.8 154.3,38.2 156.5, 39 C 158.7,39.8 159.5,40.4 160.5, 41 C 161.5,41.6 161.1,41.4 161.5, 42 C 161.9,42.6 162.5,43 162.5, 44 C 162.5,45 162.5,45.8 161.5, 47 C 160.5,48.2 159.7,49 157.5, 50 C 155.3,51 153.3,51.199999999999996 150.5, 52 C 147.7,52.8 146.7,53.199999999999996 143.5, 54 C 140.3,54.8 138.1,55.199999999999996 134.5, 56 C 130.9,56.8 129.9,57.599999999999994 125.5, 58 C 121.1,58.4 117.7,58 112.5, 58 C 107.3,58 106.7,58 99.5, 58 C 92.3,58 81.3,58 76.5, 58 C 71.7,58 75.9,58.2 75.5, 58 C 75.1,57.8 75.5,57.2 74.5, 57 C 73.5,56.8 72.3,57.2 70.5, 57 C 68.7,56.8 67.3,56.6 65.5, 56 C 63.7,55.4 62.7,54.6 61.5, 54 C 60.3,53.4 60.3,53.4 59.5, 53 C 58.7,52.6 58.1,52.4 57.5, 52 C 56.9,51.6 57.1,51.6 56.5, 51 C 55.9,50.4 55.1,49.8 54.5, 49 C 53.9,48.2 53.7,47.6 53.5, 47 C 53.3,46.4 53.5,46.6 53.5, 46 C 53.5,45.4 52.5,45 53.5, 44 C 54.5,43 56.1,42 58.5, 41 C 60.9,40 62.5,40 65.5, 39 C 68.5,38 70.5,37 73.5, 36 C 76.5,35 77.3,35 80.5, 34 C 83.7,33 86.7,31.6 89.5, 31 C 92.3,30.4 92.7,31 94.5, 31 C 96.3,31 97.5,31 98.5, 31 C 99.5,31 98.5,31 99.5, 31 C 100.5,31 102.3,31 103.5, 31 C 104.7,31 105.1,31 105.5, 31" fill="none" stroke-linecap="round" stroke="rgba(1,1,255,0.6)" stroke-width="2"></path></g></svg>