<svg version="1.1" baseProfile="full" xmlns="http://www.w3.org/2000/svg" style="width: 100%; height: 100%; background: rgba(255, 255, 255, 0);" viewBox="0 0 400 200" width="400" height="200"><g id="canvasPenStrokes"><path d="M 34.5,115 C 34.5,114.8 34.5,114.8 34.5, 114 C 34.5,113.2 33.1,114 34.5, 111 C 35.9,108 37.1,105.4 41.5, 99 C 45.9,92.6 50.3,87 56.5, 79 C 62.7,71 66.1,66.60000000000001 72.5, 59 C 78.9,51.4 83.9,45.800000000000004 88.5, 41 C 93.1,36.2 93.9,36.2 95.5, 35 C 97.1,33.8 96.7,33.6 96.5, 35 C 96.3,36.4 96.9,35.8 94.5, 42 C 92.1,48.2 89.10000000000001,55.2 84.5, 66 C 79.9,76.8 76.7,85.8 71.5, 96 C 66.3,106.2 62.300000000000004,111 58.5, 117 C 54.699999999999996,123 53.1,125.6 52.5, 126 C 51.9,126.4 53.5,122.8 55.5, 119 C 57.5,115.2 59.300000000000004,112.2 62.5, 107 C 65.7,101.8 67.9,97.8 71.5, 93 C 75.1,88.2 77.9,86.4 80.5, 83 C 83.1,79.6 83.5,77.6 84.5, 76 C 85.5,74.4 85.3,74.8 85.5, 75 C 85.7,75.2 85.7,75.8 85.5, 77 C 85.3,78.2 85.9,77.2 84.5, 81 C 83.1,84.8 81.1,89.8 78.5, 96 C 75.9,102.2 73.5,107.4 71.5, 112 C 69.5,116.6 69.1,117.4 68.5, 119 C 67.9,120.6 67.9,121 68.5, 120 C 69.1,119 68.9,118.8 71.5, 114 C 74.1,109.2 77.10000000000001,104.4 81.5, 96 C 85.9,87.6 89.5,79.6 93.5, 72 C 97.5,64.4 99.1,61.6 101.5, 58 C 103.9,54.4 104.7,54.6 105.5, 54 C 106.3,53.4 105.7,53.4 105.5, 55 C 105.3,56.6 105.7,58.2 104.5, 62 C 103.3,65.8 102.1,68.4 99.5, 74 C 96.9,79.6 94.5,84.2 91.5, 90 C 88.5,95.8 86.3,99.2 84.5, 103 C 82.7,106.8 82.9,108 82.5, 109 C 82.1,110 81.7,108.8 82.5, 108 C 83.3,107.2 84.1,107.8 86.5, 105 C 88.9,102.2 90.1,99.4 94.5, 94 C 98.9,88.6 104.3,83 108.5, 78 C 112.7,73 113.7,71.2 115.5, 69 C 117.3,66.8 117.1,67.2 117.5, 67 C 117.9,66.8 118.1,65 117.5, 68 C 116.9,71 116.89999999999999,74.2 114.5, 82 C 112.1,89.8 107.3,101.6 105.5, 107 C 103.7,112.4 105.7,108.2 105.5, 109 C 105.3,109.8 103.7,112.4 104.5, 111 C 105.3,109.6 107.1,106 109.5, 102 C 111.9,98 113.3,95 116.5, 91 C 119.7,87 122.3,84.8 125.5, 82 C 128.7,79.2 130.3,78.2 132.5, 77 C 134.7,75.8 135.7,76 136.5, 76 C 137.3,76 136.7,75.4 136.5, 77 C 136.3,78.6 136.7,80 135.5, 84 C 134.3,88 132.3,92.2 130.5, 97 C 128.7,101.8 127.7,105 126.5, 108 C 125.3,111 124.9,111.4 124.5, 112 C 124.1,112.6 123.1,113.2 124.5, 111 C 125.9,108.8 128.5,105.4 131.5, 101 C 134.5,96.6 135.9,94 139.5, 89 C 143.1,84 146.1,79.8 149.5, 76 C 152.9,72.2 154.7,71.4 156.5, 70 C 158.3,68.6 158.1,69 158.5, 69 C 158.9,69 159.1,68 158.5, 70 C 157.9,72 157.3,74.4 155.5, 79 C 153.7,83.6 151.7,88 149.5, 93 C 147.3,98 145.7,101 144.5, 104 C 143.3,107 142.3,109.6 143.5, 108 C 144.7,106.4 148.5,99.2 150.5, 96 C 152.5,92.8 152.1,94 153.5, 92 C 154.9,90 155.7,88.4 157.5, 86 C 159.3,83.6 160.3,82.6 162.5, 80 C 164.7,77.4 166.7,75 168.5, 73 C 170.3,71 171.1,69.6 171.5, 70 C 171.9,70.4 171.3,72 170.5, 75 C 169.7,78 169.1,80.2 167.5, 85 C 165.9,89.8 163.9,94.8 162.5, 99 C 161.1,103.2 160.9,104.4 160.5, 106 C 160.1,107.6 160.1,107.6 160.5, 107 C 160.9,106.4 160.5,106 162.5, 103 C 164.5,100 167.3,96.4 170.5, 92 C 173.7,87.6 175.7,84.8 178.5, 81 C 181.3,77.2 183.1,74.8 184.5, 73 C 185.9,71.2 185.3,72 185.5, 72 C 185.7,72 185.7,71 185.5, 73 C 185.3,75 185.1,78 184.5, 82 C 183.9,86 183.3,89.4 182.5, 93 C 181.7,96.6 180.9,98.4 180.5, 100 C 180.1,101.6 180.5,101 180.5, 101 C 180.5,101 180.3,100.6 180.5, 100 C 180.7,99.4 180.1,99.6 181.5, 98 C 182.9,96.4 185.1,94.8 187.5, 92 C 189.9,89.2 190.9,87 193.5, 84 C 196.1,81 199.5,77 200.5, 77 C 201.5,77 199.7,80.4 198.5, 84 C 197.3,87.6 195.9,91.2 194.5, 95 C 193.1,98.8 192.1,101.2 191.5, 103 C 190.9,104.8 191.5,104 191.5, 104 C 191.5,104 190.1,105.4 191.5, 103 C 192.9,100.6 195.7,96.6 198.5, 92 C 201.3,87.4 203.1,83.6 205.5, 80 C 207.9,76.4 209.3,75.8 210.5, 74 C 211.7,72.2 211.3,71.4 211.5, 71 C 211.7,70.6 211.5,70.8 211.5, 72 C 211.5,73.2 211.9,74.4 211.5, 77 C 211.1,79.6 210.5,81.8 209.5, 85 C 208.5,88.2 207.3,90.4 206.5, 93 C 205.7,95.6 205.7,96.6 205.5, 98 C 205.3,99.4 205.5,99.8 205.5, 100 C 205.5,100.2 204.7,100.2 205.5, 99 C 206.3,97.8 207.3,96.8 209.5, 94 C 211.7,91.2 212.9,89 216.5, 85 C 220.1,81 223.9,78 227.5, 74 C 231.1,70 232.3,67.4 234.5, 65 C 236.7,62.6 237.7,62.4 238.5, 62 C 239.3,61.6 239.9,59 238.5, 63 C 237.1,67 233.5,77.2 231.5, 82 C 229.5,86.8 230.3,83.6 228.5, 87 C 226.7,90.4 224.5,94.8 222.5, 99 C 220.5,103.2 219.3,105.8 218.5, 108 C 217.7,110.2 218.1,110.6 218.5, 110 C 218.9,109.4 219.3,107.6 220.5, 105 C 221.7,102.4 222.3,100.8 224.5, 97 C 226.7,93.2 228.9,89.8 231.5, 86 C 234.1,82.2 235.7,80.4 237.5, 78 C 239.3,75.6 239.7,75 240.5, 74 C 241.3,73 241.3,73 241.5, 73 C 241.7,73 241.9,72.4 241.5, 74 C 241.1,75.6 240.5,77.6 239.5, 81 C 238.5,84.4 237.5,87.6 236.5, 91 C 235.5,94.4 235.1,96.2 234.5, 98 C 233.9,99.8 231.9,100.8 233.5, 100 C 235.1,99.2 238.5,97.2 242.5, 94 C 246.5,90.8 248.5,88.4 253.5, 84 C 258.5,79.6 263.7,75.60000000000001 267.5, 72 C 271.3,68.4 271.5,67 272.5, 66 C 273.5,65 272.9,65.8 272.5, 67 C 272.1,68.2 272.7,67.8 270.5, 72 C 268.3,76.2 265.3,79.2 261.5, 88 C 257.7,96.8 253.5,109.8 251.5, 116 C 249.5,122.2 251.5,118 251.5, 119 C 251.5,120 251.5,120.8 251.5, 121 C 251.5,121.2 250.7,121.6 251.5, 120 C 252.3,118.4 253.7,116.2 255.5, 113 C 257.3,109.8 258.1,107.8 260.5, 104 C 262.9,100.2 264.7,98.2 267.5, 94 C 270.3,89.8 272.1,86.4 274.5, 83 C 276.9,79.6 278.5,78.4 279.5, 77 C 280.5,75.6 279.5,75.8 279.5, 76 C 279.5,76.2 279.5,77.4 279.5, 78 C 279.5,78.6 279.9,77.8 279.5, 79 C 279.1,80.2 278.7,81.4 277.5, 84 C 276.3,86.6 274.9,88.6 273.5, 92 C 272.1,95.4 271.7,97.8 270.5, 101 C 269.3,104.2 268.1,106.8 267.5, 108 C 266.9,109.2 267.3,107.8 267.5, 107 C 267.7,106.2 267.1,107 268.5, 104 C 269.9,101 271.9,96.6 274.5, 92 C 277.1,87.4 279.5,84 281.5, 81 C 283.5,78 283.9,78 284.5, 77 C 285.1,76 284.5,74.6 284.5, 76 C 284.5,77.4 285.5,79.4 284.5, 84 C 283.5,88.6 281.5,91.4 279.5, 99 C 277.5,106.6 275.5,117.6 274.5, 122 C 273.5,126.4 273.7,122.6 274.5, 121 C 275.3,119.4 276.3,117.8 278.5, 114 C 280.7,110.2 282.7,106.4 285.5, 102 C 288.3,97.6 290.1,95.4 292.5, 92 C 294.9,88.6 295.9,87 297.5, 85 C 299.1,83 299.7,82.6 300.5, 82 C 301.3,81.4 301.3,81.4 301.5, 82 C 301.7,82.6 301.9,82.6 301.5, 85 C 301.1,87.4 300.5,90.2 299.5, 94 C 298.5,97.8 297.3,100.6 296.5, 104 C 295.7,107.4 295.7,109.4 295.5, 111 C 295.3,112.6 295.3,112.4 295.5, 112 C 295.7,111.6 295.1,111.6 296.5, 109 C 297.9,106.4 299.5,103.8 302.5, 99 C 305.5,94.2 308.5,89.8 311.5, 85 C 314.5,80.2 315.3,78 317.5, 75 C 319.7,72 321.3,71 322.5, 70 C 323.7,69 323.3,69.8 323.5, 70 C 323.7,70.2 323.7,69.4 323.5, 71 C 323.3,72.6 323.7,74.2 322.5, 78 C 321.3,81.8 319.3,85.6 317.5, 90 C 315.7,94.4 314.7,97.2 313.5, 100 C 312.3,102.8 310.1,106.6 311.5, 104 C 312.9,101.4 317.7,92.6 320.5, 87 C 323.3,81.4 323.9,79.4 325.5, 76 C 327.1,72.6 327.7,71.4 328.5, 70 C 329.3,68.6 329.3,69 329.5, 69 C 329.7,69 329.7,69.2 329.5, 70 C 329.3,70.8 329.7,70.4 328.5, 73 C 327.3,75.6 325.7,78.6 323.5, 83 C 321.3,87.4 319.3,91.4 317.5, 95 C 315.7,98.6 314.3,101.4 314.5, 101 C 314.7,100.6 316.9,96.2 318.5, 93 C 320.1,89.8 320.9,88 322.5, 85 C 324.1,82 325.1,80.2 326.5, 78 C 327.9,75.8 328.9,75 329.5, 74 C 330.1,73 329.5,73 329.5, 73 C 329.5,73 329.5,73.6 329.5, 74 C 329.5,74.4 329.5,73.2 329.5, 75 C 329.5,76.8 329.9,79.8 329.5, 83 C 329.1,86.2 328.3,88 327.5, 91 C 326.7,94 326.1,96.2 325.5, 98 C 324.9,99.8 324.3,100 324.5, 100 C 324.7,100 324.7,100.2 326.5, 98 C 328.3,95.8 330.1,93.8 333.5, 89 C 336.9,84.2 341.3,77.6 343.5, 74 C 345.7,70.4 344.1,71.8 344.5, 71 C 344.9,70.2 345.3,69.8 345.5, 70 C 345.7,70.2 345.7,70.8 345.5, 72 C 345.3,73.2 345.5,72.6 344.5, 76 C 343.5,79.4 341.9,84.2 340.5, 89 C 339.1,93.8 338.1,97 337.5, 100 C 336.9,103 337.3,104.2 337.5, 104 C 337.7,103.8 337.3,101.4 338.5, 99 C 339.7,96.6 341.3,94.8 343.5, 92 C 345.7,89.2 347.7,87.4 349.5, 85 C 351.3,82.6 351.9,80.4 352.5, 80 C 353.1,79.6 352.9,81.2 352.5, 83 C 352.1,84.8 351.5,86 350.5, 89 C 349.5,92 348.5,95.2 347.5, 98 C 346.5,100.8 345.9,101.8 345.5, 103 C 345.1,104.2 344.9,105 345.5, 104 C 346.1,103 346.3,101.4 348.5, 98 C 350.7,94.6 352.7,92.2 356.5, 87 C 360.3,81.8 365.3,75 367.5, 72 C 369.7,69 367.5,71.8 367.5, 72 C 367.5,72.2 367.9,71.8 367.5, 73 C 367.1,74.2 366.9,74.2 365.5, 78 C 364.1,81.8 362.5,86.4 360.5, 92 C 358.5,97.6 356.7,101.4 355.5, 106 C 354.3,110.6 354.7,112.6 354.5, 115 C 354.3,117.4 354.5,117.6 354.5, 118 C 354.5,118.4 354.5,117.6 354.5, 117 C 354.5,116.4 353.9,117 354.5, 115 C 355.1,113 355.9,110.6 357.5, 107 C 359.1,103.4 360.5,100.6 362.5, 97 C 364.5,93.4 366.3,91.2 367.5, 89 C 368.7,86.8 368.3,86.4 368.5, 86 C 368.7,85.6 368.5,84.8 368.5, 87 C 368.5,89.2 368.9,92.6 368.5, 97 C 368.1,101.4 367.5,104.8 366.5, 109 C 365.5,113.2 364.3,115.6 363.5, 118 C 362.7,120.4 362.7,120.6 362.5, 121 C 362.3,121.4 362.1,121 362.5, 120 C 362.9,119 362.7,119.6 364.5, 116 C 366.3,112.4 368.5,107.6 371.5, 102 C 374.5,96.4 376.9,92.6 379.5, 88 C 382.1,83.4 382.9,81.4 384.5, 79 C 386.1,76.6 386.9,76.6 387.5, 76 C 388.1,75.4 387.5,75.8 387.5, 76 C 387.5,76.2 387.9,76.4 387.5, 77 C 387.1,77.6 385.9,78.6 385.5, 79" fill="none" stroke-linecap="round" stroke="rgba(255,1,1,0.6)" stroke-width="5"></path></g></svg>