<svg xmlns="http://www.w3.org/2000/svg" style="width:100%;height:100%;background:0 0" width="200" height="200" baseProfile="full" version="1.1" viewBox="0 0 200 200"><g id="canvasPenStrokes"><path fill="none" stroke="rgba(1,255,1,0.6)" stroke-linecap="round" stroke-width="4" d="M 63.5,31 C 63.5,30.6 63.1,29.6 63.5, 29 C 63.9,28.4 64.1,28.2 65.5, 28 C 66.9,27.8 68.1,28 70.5, 28 C 72.9,28 74.7,28 77.5, 28 C 80.3,28 81.7,28 84.5, 28 C 87.3,28 89.3,27.8 91.5, 28 C 93.7,28.2 94.1,28.4 95.5, 29 C 96.9,29.6 97.7,30.4 98.5, 31 C 99.3,31.6 99.3,31.2 99.5, 32 C 99.7,32.8 99.5,33.6 99.5, 35 C 99.5,36.4 99.5,37.4 99.5, 39 C 99.5,40.6 100.1,40.8 99.5, 43 C 98.9,45.2 97.9,47.4 96.5, 50 C 95.1,52.6 94.1,53.6 92.5, 56 C 90.9,58.4 89.9,60 88.5, 62 C 87.1,64 86.5,64.8 85.5, 66 C 84.5,67.2 84.1,67.6 83.5, 68 C 82.9,68.4 82.7,68 82.5, 68 C 82.3,68 82.7,67.8 82.5, 68 C 82.3,68.2 81.9,68.8 81.5, 69 C 81.1,69.2 80.9,68.4 80.5, 69 C 80.1,69.6 79.9,70.8 79.5, 72 C 79.1,73.2 78.7,73.2 78.5, 75 C 78.3,76.8 78.5,79.4 78.5, 81 C 78.5,82.6 78.5,81.6 78.5, 83 C 78.5,84.4 78.5,86.6 78.5, 88 C 78.5,89.4 78.5,89 78.5, 90 C 78.5,91 78.5,92.4 78.5, 93"/><path fill="none" stroke="rgba(1,255,1,0.6)" stroke-linecap="round" stroke-width="4" d="M 78.5,115 C 78.7,115 79.3,115.2 79.5, 115 C 79.7,114.8 79.3,114.4 79.5, 114 C 79.7,113.6 80.3,113.4 80.5, 113 C 80.7,112.6 80.5,112.2 80.5, 112 C 80.5,111.8 80.5,112 80.5, 112 C 80.5,112 80.5,112 80.5, 112"/></g></svg>