<svg xmlns="http://www.w3.org/2000/svg" style="width:100%;height:100%;background:0 0" width="200" height="100" baseProfile="full" version="1.1" viewBox="0 0 200 100"><g id="canvasPenStrokes"><path fill="none" stroke="rgba(1,1,255,0.6)" stroke-linecap="round" stroke-width="4" d="M 45.5,46 C 45.7,46 44.3,46 46.5, 46 C 48.7,46 51.3,46 56.5, 46 C 61.7,46 64.3,46 72.5, 46 C 80.7,46 87.5,45.800000000000004 97.5, 46 C 107.5,46.2 113.9,46.4 122.5, 47 C 131.1,47.6 134.7,48.4 140.5, 49 C 146.3,49.6 147.7,49.800000000000004 151.5, 50 C 155.3,50.2 157.1,50 159.5, 50 C 161.9,50 162.3,50 163.5, 50 C 164.7,50 165.1,50 165.5, 50"/></g></svg>