<svg xmlns="http://www.w3.org/2000/svg" style="width:100%;height:100%;background:0 0" width="400" height="200" baseProfile="full" version="1.1" viewBox="0 0 400 200"><g id="canvasPenStrokes"><path fill="none" stroke="rgba(255,1,1,0.6)" stroke-linecap="round" stroke-width="5" d="M 12.5,108 C 12.5,108 12.5,108 12.5, 108 C 12.5,108 11.9,108.4 12.5, 108 C 13.1,107.6 12.5,108 15.5, 106 C 18.5,104 22.1,102 27.5, 98 C 32.9,94 37.1,90.8 42.5, 86 C 47.9,81.2 50.699999999999996,78 54.5, 74 C 58.3,70 59.3,68.2 61.5, 66 C 63.7,63.8 64.5,63.6 65.5, 63 C 66.5,62.4 67.7,61.4 66.5, 63 C 65.3,64.6 62.9,66.4 59.5, 71 C 56.1,75.6 53.300000000000004,80 49.5, 86 C 45.699999999999996,92 43.5,96.6 40.5, 101 C 37.5,105.4 35.7,106.4 34.5, 108 C 33.3,109.6 34.5,109 34.5, 109 C 34.5,109 34.1,109.2 34.5, 108 C 34.9,106.8 34.7,106 36.5, 103 C 38.3,100 39.699999999999996,97 43.5, 93 C 47.3,89 50.1,86.6 55.5, 83 C 60.9,79.4 65.3,78.2 70.5, 75 C 75.7,71.8 79.1,68.8 81.5, 67 C 83.9,65.2 82.3,66.4 82.5, 66 C 82.7,65.6 82.5,64.6 82.5, 65 C 82.5,65.4 83.9,65.4 82.5, 68 C 81.1,70.6 78.9,73.4 75.5, 78 C 72.1,82.6 68.9,86.4 65.5, 91 C 62.1,95.6 60.3,98.6 58.5, 101 C 56.7,103.4 56.9,102.6 56.5, 103 C 56.1,103.4 54.7,104.6 56.5, 103 C 58.3,101.4 60.9,99.6 65.5, 95 C 70.1,90.4 74.7,85.8 79.5, 80 C 84.3,74.2 86.5,70.6 89.5, 66 C 92.5,61.4 93.3,59.2 94.5, 57 C 95.7,54.8 95.3,55.2 95.5, 55 C 95.7,54.8 96.9,54.4 95.5, 56 C 94.1,57.6 91.9,58.8 88.5, 63 C 85.1,67.2 82.3,71.4 78.5, 77 C 74.7,82.6 72.3,86.4 69.5, 91 C 66.7,95.6 65.7,98 64.5, 100 C 63.3,102 63.7,101 63.5, 101 C 63.3,101 62.9,101.2 63.5, 100 C 64.1,98.8 63.5,98.6 66.5, 95 C 69.5,91.4 72.7,88.4 78.5, 82 C 84.3,75.6 89.7,69.4 95.5, 63 C 101.3,56.6 104.9,52.6 107.5, 50 C 110.1,47.4 108.3,49.8 108.5, 50 C 108.7,50.2 108.9,49.2 108.5, 51 C 108.1,52.8 108.1,54.8 106.5, 59 C 104.9,63.2 102.9,66.6 100.5, 72 C 98.1,77.4 96.3,81.8 94.5, 86 C 92.7,90.2 92.3,91.4 91.5, 93 C 90.7,94.6 90.7,94 90.5, 94 C 90.3,94 90.1,93.4 90.5, 93 C 90.9,92.6 91.1,93.6 92.5, 92 C 93.9,90.4 94.7,88 97.5, 85 C 100.3,82 103.5,79.6 106.5, 77 C 109.5,74.4 111.1,73.2 112.5, 72 C 113.9,70.8 113.3,71.2 113.5, 71 C 113.7,70.8 114.7,69 113.5, 71 C 112.3,73 110.3,77.2 107.5, 81 C 104.7,84.8 102.3,86.4 99.5, 90 C 96.7,93.6 94.9,96.6 93.5, 99 C 92.1,101.4 92.7,101.6 92.5, 102 C 92.3,102.4 91.9,102 92.5, 101 C 93.1,100 93.7,99.6 95.5, 97 C 97.3,94.4 98.3,92 101.5, 88 C 104.7,84 107.9,80.8 111.5, 77 C 115.1,73.2 117.5,71 119.5, 69 C 121.5,67 121.5,66.8 121.5, 67 C 121.5,67.2 121.5,67.4 119.5, 70 C 117.5,72.6 115.5,74.8 111.5, 80 C 107.5,85.2 104.3,89.8 99.5, 96 C 94.7,102.2 90.1,106.8 87.5, 111 C 84.9,115.2 86.5,116 86.5, 117 C 86.5,118 85.3,118.2 87.5, 116 C 89.7,113.8 92.5,111.4 97.5, 106 C 102.5,100.6 106.9,96 112.5, 89 C 118.1,82 121.7,76.8 125.5, 71 C 129.3,65.2 130.1,62.4 131.5, 60 C 132.9,57.6 132.3,59 132.5, 59 C 132.7,59 132.9,58.6 132.5, 60 C 132.1,61.4 131.7,62.8 130.5, 66 C 129.3,69.2 127.9,72 126.5, 76 C 125.1,80 124.5,82.4 123.5, 86 C 122.5,89.6 122.1,92 121.5, 94 C 120.9,96 120.7,95.6 120.5, 96 C 120.3,96.4 119.5,96.8 120.5, 96 C 121.5,95.2 122.1,95.6 125.5, 92 C 128.9,88.4 132.3,83.6 137.5, 78 C 142.7,72.4 146.7,68.6 151.5, 64 C 156.3,59.4 159.3,57 161.5, 55 C 163.7,53 162.3,53.6 162.5, 54 C 162.7,54.4 163.7,54 162.5, 57 C 161.3,60 159.7,62.2 156.5, 69 C 153.3,75.8 148.9,85.6 146.5, 91 C 144.1,96.4 145.1,94.4 144.5, 96 C 143.9,97.6 143.7,98.6 143.5, 99 C 143.3,99.4 143.3,98.4 143.5, 98 C 143.7,97.6 144.1,98.6 144.5, 97 C 144.9,95.4 144.7,93 145.5, 90 C 146.3,87 146.9,85.2 148.5, 82 C 150.1,78.8 151.3,76.4 153.5, 74 C 155.7,71.6 157.9,71 159.5, 70 C 161.1,69 161.1,69 161.5, 69 C 161.9,69 161.9,69 161.5, 70 C 161.1,71 161.9,70.6 159.5, 74 C 157.1,77.4 154.3,81.4 149.5, 87 C 144.7,92.6 140.5,96.8 135.5, 102 C 130.5,107.2 127.1,110.2 124.5, 113 C 121.9,115.8 122.9,115.6 122.5, 116 C 122.1,116.4 120.9,117.2 122.5, 115 C 124.1,112.8 126.5,109.8 130.5, 105 C 134.5,100.2 138.1,96.4 142.5, 91 C 146.9,85.6 149.3,82 152.5, 78 C 155.7,74 157.1,73 158.5, 71 C 159.9,69 159.3,68.4 159.5, 68 C 159.7,67.6 159.7,67.6 159.5, 69 C 159.3,70.4 159.9,71.6 158.5, 75 C 157.1,78.4 157.1,78.6 152.5, 86 C 147.9,93.4 139.5,106.2 135.5, 112 C 131.5,117.8 133.7,113.4 132.5, 115 C 131.3,116.6 128.3,120.6 129.5, 120 C 130.7,119.4 132.5,117.6 138.5, 112 C 144.5,106.4 151.1,100.4 159.5, 92 C 167.9,83.6 173.3,78 180.5, 70 C 187.7,62 192.1,56.4 195.5, 52 C 198.9,47.6 197.3,48.8 197.5, 48 C 197.7,47.2 198.3,46 196.5, 48 C 194.7,50 191.9,52.8 188.5, 58 C 185.1,63.2 182.7,68 179.5, 74 C 176.3,80 174.9,82.8 172.5, 88 C 170.1,93.2 169.3,96.8 167.5, 100 C 165.7,103.2 164.3,103.4 163.5, 104 C 162.7,104.6 161.5,105.2 163.5, 103 C 165.5,100.8 169.3,96.8 173.5, 93 C 177.7,89.2 178.5,89.4 184.5, 84 C 190.5,78.6 197.5,71.6 203.5, 66 C 209.5,60.4 212.1,58.4 214.5, 56 C 216.9,53.6 215.5,54.2 215.5, 54 C 215.5,53.8 216.5,52.6 214.5, 55 C 212.5,57.4 208.9,61.2 205.5, 66 C 202.1,70.8 199.9,74.2 197.5, 79 C 195.1,83.8 194.5,87 193.5, 90 C 192.5,93 192.7,93.2 192.5, 94 C 192.3,94.8 192.5,94.8 192.5, 94 C 192.5,93.2 192.1,92.6 192.5, 90 C 192.9,87.4 192.7,84.6 194.5, 81 C 196.3,77.4 199.1,75 201.5, 72 C 203.9,69 205.3,67.6 206.5, 66 C 207.7,64.4 207.5,64.2 207.5, 64 C 207.5,63.8 208.1,63 206.5, 65 C 204.9,67 203.1,70.2 199.5, 74 C 195.9,77.8 193.9,79.4 188.5, 84 C 183.1,88.6 177.3,93.4 172.5, 97 C 167.7,100.6 166.3,100.8 164.5, 102 C 162.7,103.2 163.1,103.8 163.5, 103 C 163.9,102.2 163.7,101.4 166.5, 98 C 169.3,94.6 171.9,91.4 177.5, 86 C 183.1,80.6 189.1,76 194.5, 71 C 199.9,66 201.7,64 204.5, 61 C 207.3,58 207.9,56.8 208.5, 56 C 209.1,55.2 208.1,56.4 207.5, 57 C 206.9,57.6 207.3,56.4 205.5, 59 C 203.7,61.6 202.1,64.6 198.5, 70 C 194.9,75.4 191.5,80.2 187.5, 86 C 183.5,91.8 180.7,95 178.5, 99 C 176.3,103 175.3,106 176.5, 106 C 177.7,106 182.3,101 184.5, 99 C 186.7,97 185.7,98.2 187.5, 96 C 189.3,93.8 188.3,93 193.5, 88 C 198.7,83 206.7,77.2 213.5, 71 C 220.3,64.8 223.9,60.800000000000004 227.5, 57 C 231.1,53.2 232.1,51.4 231.5, 52 C 230.9,52.6 228.1,55.4 224.5, 60 C 220.9,64.6 217.9,69.2 213.5, 75 C 209.1,80.8 205.9,84.2 202.5, 89 C 199.1,93.8 197.9,97 196.5, 99 C 195.1,101 194.9,99.6 195.5, 99 C 196.1,98.4 196.5,98.4 199.5, 96 C 202.5,93.6 204.5,91.6 210.5, 87 C 216.5,82.4 222.7,77.8 229.5, 73 C 236.3,68.2 240.5,66 244.5, 63 C 248.5,60 248.5,58.8 249.5, 58 C 250.5,57.2 251.5,57.199999999999996 249.5, 59 C 247.5,60.8 244.5,62.4 239.5, 67 C 234.5,71.6 230.3,75.6 224.5, 82 C 218.7,88.4 213.7,94.2 210.5, 99 C 207.3,103.8 208.9,104.4 208.5, 106 C 208.1,107.6 207.5,107.6 208.5, 107 C 209.5,106.4 210.9,105.6 213.5, 103 C 216.1,100.4 218.1,98 221.5, 94 C 224.9,90 224.9,88 230.5, 83 C 236.1,78 244.9,72 249.5, 69 C 254.1,66 252.5,68.4 253.5, 68 C 254.5,67.6 254.3,67 254.5, 67 C 254.7,67 255.7,66.4 254.5, 68 C 253.3,69.6 251.3,71.2 248.5, 75 C 245.7,78.8 243.3,82.2 240.5, 87 C 237.7,91.8 236.3,95.6 234.5, 99 C 232.7,102.4 231.9,103 231.5, 104 C 231.1,105 230.7,105.4 232.5, 104 C 234.3,102.6 236.7,100.4 240.5, 97 C 244.3,93.6 246.3,92 251.5, 87 C 256.7,82 261.9,77 266.5, 72 C 271.1,67 272.3,64.4 274.5, 62 C 276.7,59.6 277.1,60.2 277.5, 60 C 277.9,59.8 277.9,59.4 276.5, 61 C 275.1,62.6 273.1,64.4 270.5, 68 C 267.9,71.6 266.3,74 263.5, 79 C 260.7,84 258.3,89.2 256.5, 93 C 254.7,96.8 254.9,96.8 254.5, 98 C 254.1,99.2 253.5,99.6 254.5, 99 C 255.5,98.4 256.9,97.6 259.5, 95 C 262.1,92.4 263.9,89.6 267.5, 86 C 271.1,82.4 274.3,80.6 277.5, 77 C 280.7,73.4 281.9,70.2 283.5, 68 C 285.1,65.8 285.3,65.8 285.5, 66 C 285.7,66.2 285.1,67.8 284.5, 69 C 283.9,70.2 283.7,70 282.5, 72 C 281.3,74 280.7,75.6 278.5, 79 C 276.3,82.4 273.3,85.6 271.5, 89 C 269.7,92.4 270.1,94.4 269.5, 96 C 268.9,97.6 268.5,96.8 268.5, 97 C 268.5,97.2 268.1,97.8 269.5, 97 C 270.9,96.2 272.5,95.4 275.5, 93 C 278.5,90.6 280.9,88.2 284.5, 85 C 288.1,81.8 290.7,79.6 293.5, 77 C 296.3,74.4 297.5,72.8 298.5, 72 C 299.5,71.2 299.9,71.4 298.5, 73 C 297.1,74.6 294.5,76.2 291.5, 80 C 288.5,83.8 286.3,87.8 283.5, 92 C 280.7,96.2 278.7,99 277.5, 101 C 276.3,103 277.1,102 277.5, 102 C 277.9,102 277.1,103.2 279.5, 101 C 281.9,98.8 285.7,95 289.5, 91 C 293.3,87 295.7,84.6 298.5, 81 C 301.3,77.4 302.1,75 303.5, 73 C 304.9,71 305.1,71.2 305.5, 71 C 305.9,70.8 305.5,71.4 305.5, 72 C 305.5,72.6 306.3,72.4 305.5, 74 C 304.7,75.6 303.7,76.8 301.5, 80 C 299.3,83.2 297.3,86 294.5, 90 C 291.7,94 288.3,98 287.5, 100 C 286.7,102 287.1,101.8 290.5, 100 C 293.9,98.2 298.9,95.4 304.5, 91 C 310.1,86.6 312.9,83 318.5, 78 C 324.1,73 329.1,69.2 332.5, 66 C 335.9,62.8 334.9,62.6 335.5, 62 C 336.1,61.4 336.1,62 335.5, 63 C 334.9,64 334.7,64.2 332.5, 67 C 330.3,69.8 327.1,72.4 324.5, 77 C 321.9,81.6 321.1,85.8 319.5, 90 C 317.9,94.2 317.1,95.8 316.5, 98 C 315.9,100.2 316.5,100.6 316.5, 101 C 316.5,101.4 315.9,101.2 316.5, 100 C 317.1,98.8 318.1,97.4 319.5, 95 C 320.9,92.6 321.1,91.2 323.5, 88 C 325.9,84.8 328.5,82 331.5, 79 C 334.5,76 336.5,74.6 338.5, 73 C 340.5,71.4 340.9,71.2 341.5, 71 C 342.1,70.8 341.7,71.6 341.5, 72 C 341.3,72.4 341.3,71.4 340.5, 73 C 339.7,74.6 338.9,76.6 337.5, 80 C 336.1,83.4 334.5,86.8 333.5, 90 C 332.5,93.2 332.9,94.6 332.5, 96 C 332.1,97.4 331.5,96.8 331.5, 97 C 331.5,97.2 331.5,97.8 332.5, 97 C 333.5,96.2 334.9,94.6 336.5, 93 C 338.1,91.4 337.3,92 340.5, 89 C 343.7,86 348.3,81.8 352.5, 78 C 356.7,74.2 359.5,72 361.5, 70 C 363.5,68 362.9,67.4 362.5, 68 C 362.1,68.6 361.1,70.2 359.5, 73 C 357.9,75.8 356.1,78.2 354.5, 82 C 352.9,85.8 352.1,89.6 351.5, 92 C 350.9,94.4 351.5,93.8 351.5, 94 C 351.5,94.2 351.3,93.4 351.5, 93 C 351.7,92.6 351.9,93 352.5, 92 C 353.1,91 353.1,89.8 354.5, 88 C 355.9,86.2 357.3,85 359.5, 83 C 361.7,81 363.5,79.4 365.5, 78 C 367.5,76.6 368.7,76.6 369.5, 76 C 370.3,75.4 370.5,73.6 369.5, 75 C 368.5,76.4 366.3,79.4 364.5, 83 C 362.7,86.6 361.7,89.6 360.5, 93 C 359.3,96.4 359.1,98.4 358.5, 100 C 357.9,101.6 357.7,101 357.5, 101 C 357.3,101 356.7,101.6 357.5, 100 C 358.3,98.4 359.9,95.8 361.5, 93 C 363.1,90.2 363.9,88.6 365.5, 86 C 367.1,83.4 368.5,81.2 369.5, 80 C 370.5,78.8 370.3,79.8 370.5, 80 C 370.7,80.2 371.1,80 370.5, 81 C 369.9,82 368.9,82.6 367.5, 85 C 366.1,87.4 365.1,89.8 363.5, 93 C 361.9,96.2 360.5,98.8 359.5, 101 C 358.5,103.2 357.9,104.4 358.5, 104 C 359.1,103.6 360.5,102 362.5, 99 C 364.5,96 366.3,92.4 368.5, 89 C 370.7,85.6 372.1,84.2 373.5, 82 C 374.9,79.8 375.1,78.6 375.5, 78 C 375.9,77.4 375.9,78 375.5, 79 C 375.1,80 374.5,80.8 373.5, 83 C 372.5,85.2 371.9,86.6 370.5, 90 C 369.1,93.4 367.7,96.8 366.5, 100 C 365.3,103.2 364.9,104.6 364.5, 106 C 364.1,107.4 364.3,107.4 364.5, 107 C 364.7,106.6 364.7,105.8 365.5, 104 C 366.3,102.2 367.3,100.6 368.5, 98 C 369.7,95.4 370.3,93.2 371.5, 91 C 372.7,88.8 373.7,88 374.5, 87 C 375.3,86 375.7,84.2 375.5, 86 C 375.3,87.8 374.1,93.4 373.5, 96 C 372.9,98.6 372.9,97.8 372.5, 99 C 372.1,100.2 371.7,101.2 371.5, 102 C 371.3,102.8 371.3,103.2 371.5, 103 C 371.7,102.8 371.3,102.8 372.5, 101 C 373.7,99.2 375.7,96.8 377.5, 94 C 379.3,91.2 380.1,89.6 381.5, 87 C 382.9,84.4 383.7,82.6 384.5, 81 C 385.3,79.4 385.1,79.4 385.5, 79 C 385.9,78.6 386.3,78.8 386.5, 79 C 386.7,79.2 386.7,79.6 386.5, 80 C 386.3,80.4 385.9,80.2 385.5, 81 C 385.1,81.8 384.7,83 384.5, 84 C 384.3,85 384.5,85.6 384.5, 86"/></g></svg>