<svg xmlns="http://www.w3.org/2000/svg" width="741" height="1000" fill="none" viewBox="0 0 741 1000"><path fill="#fff" fill-rule="evenodd" d="M611.682 883.683C624.289 883.074 619.218 861.023 618.314 852.924C608.333 823.346 610.679 791.074 606.754 760.071C604.308 731.129 601.166 702.277 598.523 673.358C593.332 614.653 556.056 495.146 513.517 475.927C508.158 452.413 486.025 430.464 458.023 430.464C438.924 407.855 415.935 391.944 386.45 395.157C374.265 395.711 362.448 408.635 350.773 411.131C344.236 412.032 286.221 409.712 274.6 416.614C266.505 420.77 259.197 428.451 261.577 438.23C265.375 450.078 253.573 437.258 228.954 449.903C178.752 480.056 208.75 520.393 210.08 521.642C178.752 565.232 151.369 600.596 138.7 653.875C130.489 693.431 131.413 734.265 124.534 774.024C122.104 787.81 118.378 801.124 114.345 814.512C109.975 832.032 107.85 875.7 105.441 876.091C101.053 877.181 107.977 886.191 112.627 886.198C241.535 907.581 372.474 887.084 502.074 883.735C538.598 882.465 575.161 882.172 611.682 883.683Z" clip-rule="evenodd"/><path fill="#000" fill-rule="evenodd" d="M416.303 525.489C416.363 524.899 417.159 524.9 417.22 525.489L418.13 534.276C419.238 545.006 420.304 555.716 421.076 566.497C422.04 579.94 422.684 593.38 422.995 606.854C424.078 653.78 424.293 700.73 424.384 747.668C430.732 747.228 437.08 746.804 443.431 746.395C447.74 746.117 452.049 745.85 456.359 745.587L467.349 744.92L471.873 744.643C474.93 744.454 478.404 743.684 480.541 746.392C481.397 747.476 481.826 748.885 481.028 750.172C479.188 753.141 476.362 753.037 473.165 753.166C470.149 753.288 467.133 753.407 464.116 753.523C457.653 753.774 451.19 754.011 444.725 754.193C437.939 754.383 431.158 754.538 424.375 754.653C424.306 774.468 423.487 794.259 422.6 814.052L422.199 822.959C421.114 847.046 419.947 871.155 418.29 895.21C418.154 897.18 415.368 897.176 415.233 895.21C413.366 868.12 412.134 840.972 410.913 813.846C410.027 794.178 409.512 774.504 409.267 754.829C408.37 754.835 407.474 754.847 406.577 754.85C381.121 754.961 355.67 755.072 330.213 754.833C330.256 754.883 330.297 754.934 330.326 755C332.168 759.349 332.343 764.899 332.298 769.566C332.246 774.919 331.526 780.207 330.293 785.412C325.876 804.061 314.483 820.764 301.508 834.573L301.084 835.022C298.024 838.257 294.512 841.506 292.633 845.625C290.713 849.831 290.047 854.751 289.1 859.271L288.989 859.79L285.286 876.898C284.109 882.332 283.775 890.257 279.474 894.177C275.461 897.835 270.145 895.925 268.256 891.215C266.781 887.539 268.25 883.502 269.124 879.828L275.967 851.061C277.092 846.37 278.32 841.648 280.747 837.433C283.233 833.117 286.877 829.988 290.596 826.786C297.637 820.724 304.102 813.783 309.568 806.268C315.033 798.756 319.704 790.476 322.979 781.769C324.619 777.41 325.962 772.881 326.889 768.317C327.77 763.985 327.763 759.498 328.705 755.212C328.77 754.916 329.02 754.713 329.306 754.623C329.238 754.432 329.342 754.174 329.609 754.157L350.429 752.819C368.935 751.625 387.441 750.401 405.931 749.001L409.198 748.765C408.945 722.513 409.16 696.255 409.634 669.993C410.068 645.91 410.078 621.821 410.794 597.741C411.15 585.79 411.918 573.867 412.772 561.941C413.646 549.744 415.045 537.65 416.303 525.489ZM220.817 665.128C220.595 663.79 222.278 662.962 223.053 664.185C231.919 678.159 236.193 693.338 237.995 709.69C239.586 724.123 239.117 738.763 238.325 753.234C237.479 768.668 236.493 784.097 235.496 799.523L233.963 823.178L230.118 882.479C229.843 886.721 228.88 890.578 225.228 892.55C224.766 892.936 224.284 893.283 223.722 893.583C221.749 894.638 219.132 894.105 217.991 892.08L218.448 892.381C218.847 892.632 218.399 892.281 217.106 891.331L216.008 889.91C215.21 888.711 214.701 887.533 214.496 886.107C214.178 883.893 214.59 881.463 214.735 879.238L217.255 840.352C219.215 810.122 221.504 779.9 223.229 749.654C224.033 735.557 224.596 721.447 224.215 707.326C223.835 693.283 223.12 679.002 220.817 665.128ZM297.509 404.817L298.001 404.735C315.61 401.81 334.757 402.357 350.85 410.846C350.983 410.916 350.922 411.137 350.773 411.13L345.593 410.923C329.195 410.281 312.848 409.901 296.725 413.754L295.074 414.151C289.268 415.568 283.204 417.302 278.54 421.137C274.083 424.803 271.863 430.458 269.729 435.664L269.443 436.351C267.278 441.493 264.537 446.369 259.79 449.584C253.642 453.748 246.249 453.238 239.199 453.803C226.788 454.801 216.64 463.796 211.591 474.804C208.534 481.469 207.23 488.942 206.972 496.231C206.839 499.942 206.821 503.798 207.315 507.484C207.473 508.663 208.93 512.957 209.673 512.854C211.324 512.625 212.833 513.486 213.348 514.806C217.426 510.866 221.622 507.039 225.952 503.351C236.747 494.158 248.374 485.826 260.619 478.666C269.964 473.201 279.821 467.786 290.029 463.693C289.22 463.676 288.422 463.837 287.651 464.238C287.313 464.415 286.977 463.991 287.244 463.71C290.459 460.327 294.31 459.846 298.192 460.748C299.021 460.484 299.85 460.229 300.682 459.987C301.096 459.867 301.303 460.437 300.965 460.658L300.011 461.267C304.246 462.686 308.405 465.475 311.697 467.675C321.154 473.996 329.478 481.722 337.916 489.304L339.45 490.679C346.877 497.311 354.494 503.755 362.932 509.076C367.349 511.861 371.989 514.437 376.856 516.353C381.03 517.997 387.826 519.032 389.781 523.444C391.519 525.555 390.793 528.249 388.758 529.67C385.325 533.447 378.459 531.007 374.369 529.433C369.439 527.537 364.662 525.257 360.106 522.583C351.262 517.39 343.107 510.934 335.511 504.067C327.577 496.894 320.093 489.274 312.376 481.876C309.033 478.671 305.767 475.39 302.418 472.19L300.736 470.597C299.027 468.994 296.592 466.495 293.989 464.983C289.085 467.909 284.104 470.714 279.244 473.715C272.46 477.904 265.875 482.396 259.392 487.035C246.911 495.966 235.084 505.968 224.104 516.69C203.966 536.352 186.81 558.805 171.822 582.579L170.684 584.391C162.167 597.998 154.113 612.045 148.402 627.081C142.119 643.627 139.063 661.026 137.403 678.59C135.755 696.028 135.199 713.553 133.358 730.975C131.469 748.842 127.749 766.315 123.517 783.756L122.507 787.891C118.678 803.51 114.726 819.129 112.757 835.117C111.706 843.657 111.074 852.314 111.217 860.923C111.361 869.583 112.721 878.051 113.819 886.619C114.24 889.901 111.01 892.641 108.119 893.076C104.795 893.575 101.94 891.454 100.906 888.366C97.6854 878.74 97.1003 868.099 97.2014 857.995C97.3032 847.737 98.6123 837.547 100.454 827.466C104.077 807.637 109.668 788.218 114.345 768.627C118.467 751.358 121.233 734.06 122.724 716.37C124.272 698.017 125.199 679.602 128.023 661.381C130.81 643.392 136.054 626.21 143.963 609.808C151.165 594.874 160.141 580.817 169.553 567.192C180.981 550.647 193.533 534.904 207.564 520.559C206.304 520.505 205.01 520.098 203.821 519.356C200.185 517.088 198.492 512.652 197.972 508.601C196.753 499.125 197.047 489.232 199.484 479.967C203.416 465.021 213.619 451.741 228.406 446.354C232.212 444.967 236.258 444.461 240.292 444.361C244.12 444.266 248.3 444.765 251.993 443.552C257.872 441.619 260.392 434.695 262.599 429.447L262.701 429.206C265.531 422.518 268.928 416.785 275.058 412.609C281.599 408.153 289.793 406.126 297.509 404.817ZM464.82 431.267C470.111 429.432 476.727 431.098 481.901 432.701C487.666 434.489 492.994 437.78 497.561 441.69C502.379 445.812 506.362 450.903 509.175 456.59L509.444 457.138C512.014 462.413 514.94 469.655 513.644 475.45C513.607 475.614 513.565 475.773 513.517 475.926C524.015 481.095 533.711 487.568 542.154 495.773C551.985 505.326 560.31 516.197 567.355 527.941C595.334 574.587 600.258 630.608 603.563 683.803L604.387 697.291C606.181 726.416 608.281 755.473 613.736 784.196L614.134 786.269C619.964 816.343 628.31 846.646 627.465 877.496C627.211 886.74 613.551 886.677 613.155 877.496C611.664 842.941 603.6 809.578 598.14 775.563C588.532 715.719 593.346 654.023 579.733 594.778C574.391 571.528 566.115 548.976 554.298 528.222C548.46 517.97 541.782 508.063 533.958 499.219C527.227 491.608 520.231 484.284 512.365 477.886C509.851 480.404 504.829 479.121 503.517 475.45C502.616 472.928 502.878 469.978 502.3 467.336C501.763 464.884 501.023 462.453 500.036 460.144C498.07 455.541 495.185 451.122 491.853 447.397C488.255 443.371 484.119 440.026 479.491 437.264C474.831 434.483 469.734 433.653 464.82 431.621C464.654 431.553 464.639 431.331 464.82 431.267ZM485.378 751.095C485.386 750.852 485.672 750.737 485.848 750.9C487.703 752.607 488.824 755.057 490.19 757.157C491.764 759.578 493.418 761.95 495.152 764.26C498.626 768.889 502.493 773.252 506.391 777.526C510.017 781.502 513.881 785.309 517.889 788.898C522.232 792.788 527.099 796.258 531.044 800.564C539.278 809.551 540.608 821.884 542.345 833.465L542.535 834.717C543.595 841.59 544.544 848.481 545.399 855.382C545.816 858.739 546.23 862.099 546.57 865.464L546.673 866.531C546.976 869.825 547.057 873.168 545.165 876.046C543.14 879.126 538.535 880.205 535.798 877.252C531.094 872.179 531.976 863.168 531.364 856.642C530.859 851.245 530.285 845.855 529.643 840.473L529.317 837.783C528.56 831.66 527.945 825.415 526.545 819.399C525.31 814.101 522.957 810.102 519.097 806.264C515.208 802.398 511.167 798.789 507.578 794.625C503.77 790.209 500.336 785.474 497.242 780.532C494.595 776.305 492.473 771.705 490.53 767.11L490.207 766.344C488.329 761.864 485.231 756.031 485.378 751.095ZM553.289 558.632C553.33 558.007 554.254 557.998 554.267 558.632C554.384 564.007 554.496 569.383 554.608 574.758C555.505 618.073 554.952 661.491 559.298 704.657C561.347 725.01 565.121 745.064 569.489 765.034C571.723 775.252 574.068 785.446 576.295 795.666C578.466 805.626 580.794 815.635 582.516 825.688C584.208 835.568 585.724 845.524 586.404 855.532L586.488 856.837C586.781 861.685 588.179 868.814 585.509 873.111C582.617 877.766 577.08 877.85 573.981 873.406C571.071 869.234 571.794 861.814 571.28 856.837C570.758 851.767 570.205 846.692 569.578 841.634C568.354 831.766 566.74 821.921 565.063 812.12C561.568 791.711 556.5 771.558 552.759 751.181C548.925 730.301 546.2 709.272 546.085 688.013C545.971 666.573 548.24 645.175 549.386 623.782C550.549 602.055 551.872 580.344 553.289 558.632ZM348.679 423.907C349.842 419.991 353.946 417.543 357.95 418.643C361.619 419.651 364.648 424.105 363.214 427.915C361.648 432.073 358.913 435.618 356.606 439.397C354.476 442.889 351.368 445.638 349.198 449.068L351.589 451.647C352.786 452.933 353.986 454.211 355.199 455.468L359.37 459.788C362.619 463.146 365.888 466.486 369.249 469.728C379.132 479.261 389.172 488.482 400.241 496.646C402.761 498.504 405.3 500.351 407.911 502.081L408.884 502.726C410.675 503.899 412.673 505.052 414.837 504.853C420.094 504.37 424.844 498.787 428.456 495.312L428.645 495.131C437.598 486.612 445.888 477.299 453.136 467.284C454.745 465.059 456.303 462.796 457.82 460.507C454.316 456.413 455.153 448.423 454.96 443.459C454.824 439.969 454.813 436.477 454.794 432.984L454.785 432.28C454.742 430.019 454.64 427.85 456.107 425.99C456.193 425.882 456.37 425.886 456.479 425.942C458.488 426.995 459.107 428.759 459.965 430.736L460.054 430.942C461.098 433.316 462.097 435.711 463.108 438.099C464.167 440.599 465.138 443.135 466.121 445.665C466.579 446.841 467.016 448.023 467.444 449.211C467.704 449.969 467.973 450.724 468.25 451.477L468.315 451.535C468.68 451.845 468.99 452.173 469.257 452.511C470.378 453.072 471.269 454.094 471.687 455.595C472.597 458.864 470.714 461.529 469.035 464.124C462.212 474.665 454.434 484.71 445.788 493.822C441.494 498.349 436.977 502.673 432.273 506.774L431.451 507.486C427.227 511.117 422.64 514.556 416.998 515.406C410.395 516.399 405.021 513.115 399.966 509.333L399.462 508.953C394.67 505.325 389.975 501.571 385.426 497.643C376.151 489.635 367.328 481.037 359.497 471.604C351.88 462.428 344.35 452.169 339.655 441.128C339.369 440.456 340.121 439.752 340.711 440.314C343.005 442.497 345.211 444.799 347.392 447.13C347.452 443.698 346.819 440.237 347.171 436.784C347.601 432.586 347.477 427.949 348.679 423.907Z" clip-rule="evenodd"/><path fill="#fff" fill-rule="evenodd" d="M507.174 315.723C505.77 303.384 507.587 277.595 507.708 276.028C508.478 266.122 503.837 227.007 495.064 230.611C480.347 218.96 460.745 216.388 442.416 215.159C404.343 212.606 363.841 218.467 334.442 244.09C319.904 257.396 305.749 276.75 306.887 296.901C293.678 316.002 275.055 342.204 291.514 364.535C297.108 371.669 306 374.326 313.028 379.729C327.164 391.131 336.033 407.495 350.303 418.83C388.11 452.805 447.355 457.473 484.5 418.83C507.174 383 512.226 351.402 507.174 315.723C503.777 291.736 509.913 339.794 507.174 315.723Z" clip-rule="evenodd"/><path fill="#000" fill-rule="evenodd" d="M388.933 142.435C399.679 140.215 416.049 136.833 425.183 137.172L431.175 140.12C438.998 140.433 447.07 145.589 453.895 150.139C454.287 149.745 454.919 149.542 455.491 149.816C460.779 152.339 468.457 154.408 475.527 156.312C479.303 157.33 482.906 158.3 485.879 159.268C494.38 162.036 503.199 163.863 512.108 164.6C515.46 164.877 518.329 168.497 516.207 171.743C515.702 172.517 515.21 173.298 514.72 174.082C514.993 174.053 515.266 174.025 515.539 173.996C516.085 173.938 516.632 173.881 517.178 173.826C519.874 173.554 522.567 176.432 522.407 179.056C522.307 180.707 522.129 182.339 521.866 183.951C522.893 183.929 523.913 184.083 524.9 184.5C529.894 186.609 528.874 201.341 528.5 205.867C527.982 212.147 525.633 218.8 521.272 223.5C523.031 225.327 521.794 228.266 520.5 231.338C519.399 233.955 518.257 236.669 518.889 238.875C519.887 242.378 520.442 246.11 520.168 249.756L520.08 250.848C520.001 251.773 519.956 254.03 519.897 256.982C519.703 266.663 519.359 283.819 517.178 286L514.72 294.5V311C514.573 321.672 513.836 327.508 513.102 333.324C512.369 339.135 511.637 344.925 511.5 355.5C511.5 366 500.073 393.923 489 412.5C477.956 427.118 463.438 439.538 445.5 443.635C435.833 445.846 427.785 447.409 418 446C416.537 445.788 414.929 445.64 413.273 445.487C409.563 445.145 405.613 444.781 402.5 443.635C397.517 441.795 393.187 439.088 389.834 435.031C388.248 433.107 388.431 431.906 391.589 432.291C396.364 432.87 400.724 433.568 405.302 434.981L410 436.5C413.629 437.663 414.801 437.759 417.531 437.983C418.232 438.041 419.035 438.107 420.008 438.201C429.774 439.147 439.688 438.195 449.042 435.233C464.273 430.406 477.391 419.649 485.799 406.133C495.779 390.112 505.282 371.5 506.5 353.5C506.477 350.472 506.458 347.326 506.438 344.097C506.324 325.772 506.194 304.784 505.282 287.615L505.099 284.25C504.808 278.92 504.943 274.229 505.077 269.521C505.206 265.05 505.334 260.564 505.099 255.5C503.72 254.692 501.484 253.991 499.096 253.243C494.971 251.95 490.393 250.515 489 248.139C484.584 249.965 479.94 251.283 475.667 252.333C465.769 254.768 455.493 255.359 445.418 253.834C442.701 254.957 439.929 255.944 437.115 256.793C436.355 257.13 435.594 257.462 434.834 257.787C428.05 260.689 418.955 263.116 411.793 264.916L410.034 265.355C406.265 266.284 402.172 267.199 398.161 267.487C397.502 267.741 396.791 267.956 396.014 268.145C392.362 269.033 388.571 269.313 384.828 269C381.181 268.693 378.546 265.008 380.555 261.557C381.295 260.287 382.602 259.027 383.907 257.768C385.189 256.532 386.47 255.297 387.211 254.055C382.012 256.221 376.644 258.021 371.23 259.548C365.763 261.087 360.219 262.385 354.667 263.579C353.196 263.893 351.722 264.189 350.249 264.485C348.75 264.786 347.251 265.087 345.758 265.406C344.328 265.709 344.132 265.915 343.625 266.445C343.38 266.7 343.063 267.032 342.5 267.487C340.822 268.833 340.58 269.596 340.055 271.256C339.983 271.485 339.905 271.732 339.817 272C339.384 274.499 337.848 279.688 336.182 285.316C333.877 293.099 331.325 301.72 331.101 305.222C330.943 307.708 330.879 310.2 330.814 312.692C330.722 316.242 330.631 319.791 330.267 323.317C329.934 326.501 326.516 328.138 323.992 325.914C323.696 325.653 323.397 325.389 323.102 325.122L322.661 324.72C320.502 322.763 318.408 320.689 316.68 318.353C316.367 317.923 316.067 317.473 315.786 317.016C315.741 317.016 315.701 317.003 315.656 316.97L315.177 316.61C309.901 312.683 301.088 307.564 295.944 314.087C294.304 316.165 293.465 318.812 292.769 321.365L291.546 325.934C290.756 328.916 290.012 331.916 289.577 334.968C288.592 341.804 289.087 349.684 293.791 355.163C295.67 357.355 298.259 358.921 301.148 359.332C302.555 359.525 303.947 359.341 305.34 359.157C305.543 359.13 305.747 359.103 305.95 359.077C306.798 358.972 307.631 359.01 308.464 359.049C309.225 359.084 309.988 359.12 310.764 359.045C313.347 358.79 314.475 361.882 313.51 363.826C312.988 364.87 312.374 365.77 311.677 366.533C312.237 367.016 312.773 367.538 313.288 368.086C314.814 368.575 316.183 369.625 317.208 371.015C318.037 372.137 318.466 373.357 318.539 374.642C318.63 374.961 318.708 375.287 318.78 375.62L320.18 377.891C320.487 378.39 320.794 378.882 321.102 379.364C324.663 384.974 328.617 389.723 333.528 394.198C335.279 395.792 337.085 397.324 338.891 398.856C341.963 401.462 345.035 404.068 347.833 406.977L348.357 407.525C352.498 411.89 356.864 417.173 355.243 423.52C354.826 425.151 352.549 426.325 351.062 425.222C348.203 423.1 346.192 420.236 344.17 417.355C342.811 415.419 341.447 413.476 339.817 411.745C337.7 409.496 335.467 407.363 333.235 405.23C331.064 403.156 328.894 401.082 326.829 398.901C322.869 394.726 319.745 389.997 317.391 384.792C316.451 385.829 315.082 386.566 313.184 386.853C309.922 387.342 306.882 385.431 305.46 382.606C304.547 383.011 303.615 383.376 302.675 383.663C297.73 385.177 294.619 379.678 296.485 375.614C297.482 373.435 298.728 371.543 300.275 369.951C295.441 369.286 290.522 366.788 287.346 363.67C279.375 355.835 278.28 344.061 280.073 333.591C281.026 328.04 282.669 322.424 284.803 317.212C285.174 316.305 285.572 315.392 286.009 314.492C285.767 314.485 285.519 314.381 285.363 314.179C284.87 313.505 284.341 312.874 283.815 312.247C282.802 311.038 281.801 309.844 281.097 308.392C280.881 307.95 280.661 307.507 280.439 307.062C279.648 305.472 278.847 303.861 278.24 302.215C276.642 297.903 275.86 293.037 275.338 288.477C275.102 286.435 274.813 284.342 274.521 282.223C273.476 274.658 272.384 266.746 273.5 259.5C274.058 255.877 274.504 251.959 274.965 247.912C276.515 234.31 278.231 219.248 284.902 209.023C284.431 208.775 283.979 208.476 283.558 208.123L283.35 207.942L283.013 207.636C280.542 205.401 280.756 201.211 283.013 198.947L283.725 198.232C284.628 197.336 285.406 196.625 286.864 195.649C287.08 195.505 287.299 195.369 287.522 195.242C286.759 193.832 286.494 192.183 287.025 190.364C288.878 184.026 297.997 184.25 303.777 187.014C310.171 181.307 317.262 176.353 324.947 172.341C330.023 169.692 335.334 166.591 340.791 163.404C355.013 155.1 370.223 146.218 384.828 143.277C386.066 143.027 387.445 142.742 388.933 142.435ZM307.222 332.05C304.193 330.642 300.091 328.734 296.942 329.762C295.5 330.232 295.076 331.758 295.728 332.88H295.676L295.811 333.096C296.41 334.009 297.179 334.627 298.021 335.214L298.415 335.483C297.359 336.233 296.55 337.316 296.197 338.699C295.631 340.897 296.55 343.598 298.637 344.7C299.473 345.137 300.379 345.379 301.324 345.424C302.659 345.484 303.772 344.869 304.782 344.1L305.082 343.865C305.526 343.513 305.885 343.043 306.171 342.535C306.514 342.978 306.85 343.433 307.185 343.887C309.227 346.654 311.258 349.407 314.951 349.508C317.005 349.566 319.328 347.929 319.752 345.848C319.786 345.697 319.817 345.545 319.846 345.396C319.856 345.346 319.866 345.297 319.876 345.248C320.273 343.298 319.987 341.015 318.389 339.619C315.18 336.827 311.866 334.185 307.972 332.398C307.73 332.287 307.48 332.17 307.222 332.05Z" clip-rule="evenodd"/><path fill="#000" fill-rule="evenodd" d="M448.046 402.434C452.977 401.748 458.279 398.955 462.988 401.225C465.19 402.285 466.235 405.913 464.746 407.929C462.473 411.009 460.126 411.518 456.436 411.814C453.67 412.036 450.888 412.053 448.129 411.734L447.427 411.648C442.504 411.012 437.387 409.638 433.573 406.329C432.793 405.652 433.192 404.19 434.194 403.978C438.723 403.025 443.461 403.073 448.046 402.434ZM442.243 391.08C442.241 391.04 442.302 391.04 442.304 391.08C442.423 393.898 443.215 396.511 444.679 398.922C444.699 398.956 444.646 398.987 444.626 398.953C443.162 396.54 442.363 393.901 442.243 391.08ZM457.785 332.92C462.711 335.915 470.216 342.896 464.917 350.319C458.68 356.864 449.7 349.36 445.274 345.966C441.171 343.336 436.561 350.101 440.368 353.172C472.345 376.848 485.323 333.703 460.277 329.4C457.519 328.926 456.495 331.994 457.785 332.92ZM482.996 299.413C484.153 299.413 485.259 299.806 486.267 300.532C487.258 301.247 488.156 302.291 488.903 303.592C490.318 306.055 491.203 309.456 491.203 313.216C491.203 316.976 490.318 320.377 488.903 322.84C488.156 324.141 487.258 325.185 486.267 325.9C485.259 326.626 484.153 327.019 482.996 327.019C481.84 327.019 480.733 326.626 479.726 325.9C478.734 325.185 477.837 324.141 477.089 322.84C475.674 320.377 474.79 316.976 474.79 313.216C474.79 309.456 475.674 306.055 477.089 303.592C477.837 302.291 478.734 301.247 479.726 300.532C480.733 299.806 481.84 299.413 482.996 299.413ZM429.432 303.248L429.867 303.166C432.408 302.704 433.692 302.859 435.904 304.591C437.567 305.892 437.09 308.455 435.904 309.824C433.837 312.209 431.818 311.786 428.987 311.877L428.788 311.884C426.429 311.98 424.067 312.047 421.706 312.083C421.06 312.094 420.414 312.091 419.768 312.095C419.837 318.071 416.391 322.621 411.854 326.08C408.921 328.317 405.212 325.736 404.165 322.952C403.3 320.648 403.114 317.815 403.563 315.293C403.729 314.363 404.076 313.354 404.605 312.493L404.755 312.262L404.73 311.932C404.725 311.85 404.73 311.771 404.728 311.69C400.516 311.434 396.328 311.012 392.141 310.481L390.746 310.3C387.173 309.827 381.925 309.675 379.033 307.351C378.942 307.276 378.975 307.114 379.071 307.062C380.661 306.206 382.274 306.255 384.051 306.176L384.307 306.164C386.24 306.064 388.169 305.98 390.101 305.914L392.035 305.854C396.981 305.712 401.931 305.472 406.872 305.209C407.731 305.164 408.59 305.109 409.45 305.057C410.35 304.679 411.306 304.454 412.251 304.412C413.033 304.377 413.786 304.485 414.494 304.71C416.299 304.571 418.102 304.419 419.904 304.256L421.706 304.088C424.249 303.846 426.922 303.741 429.432 303.248ZM460.656 258.46C466.091 255.789 472.7 255.724 478.298 257.934L478.669 258.085C484.323 260.431 491.136 265.851 489.661 272.601C488.311 278.78 478.62 277.733 478.129 271.893C475 267.557 467.983 266.606 463.572 269.363C460.897 271.036 459.061 273.852 457.806 276.692C456.736 279.111 456.535 282.097 454.892 284.204C454.838 284.273 454.731 284.285 454.654 284.267C449.754 283.133 449.64 275.347 450.476 271.57C451.69 266.079 455.586 260.953 460.656 258.46Z" clip-rule="evenodd"/></svg>