<svg xmlns="http://www.w3.org/2000/svg" width="741" height="1000" fill="none" fill-rule="evenodd" xmlns:v="https://vecta.io/nano"><path fill="#fff" d="M611.682 883.683c12.607-.609 7.536-22.66 6.632-30.759-9.981-29.578-7.635-61.85-11.56-92.853l-8.231-86.713c-5.191-58.705-42.467-178.212-85.006-197.431-5.359-23.514-27.492-45.463-55.494-45.463-19.099-22.609-42.088-38.52-71.573-35.307-12.185.554-24.002 13.478-35.677 15.974-6.537.901-64.552-1.419-76.173 5.483-8.095 4.156-15.403 11.837-13.023 21.616 3.798 11.848-8.004-.972-32.623 11.673-50.202 30.153-20.204 70.49-18.874 71.739-31.328 43.59-58.711 78.954-71.38 132.233-8.211 39.556-7.287 80.39-14.166 120.149-2.43 13.786-6.156 27.1-10.189 40.488-4.37 17.52-6.495 61.188-8.904 61.579-4.388 1.09 2.536 10.1 7.186 10.107 128.908 21.383 259.847.886 389.447-2.463 36.524-1.27 73.087-1.563 109.608-.052z"/><path fill="#000" d="M416.303 525.489a.46.46 0 0 1 .917 0l.91 8.787 2.946 32.221c.964 13.443 1.608 26.883 1.919 40.357l1.389 140.814 19.047-1.273 12.928-.808 10.99-.667 4.524-.277c3.057-.189 6.531-.959 8.668 1.749.856 1.084 1.285 2.493.487 3.78-1.84 2.969-4.666 2.865-7.863 2.994l-9.049.357-19.391.67-20.35.46c-.069 19.815-.888 39.606-1.775 59.399l-.401 8.907-3.909 72.251c-.136 1.97-2.922 1.966-3.057 0-1.867-27.09-3.099-54.238-4.32-81.364-.886-19.668-1.401-39.342-1.646-59.017l-2.69.021c-25.456.111-50.907.222-76.364-.017.043.05.084.101.113.167 1.842 4.349 2.017 9.899 1.972 14.566-.052 5.353-.772 10.641-2.005 15.846-4.417 18.649-15.81 35.352-28.785 49.161l-.424.449c-3.06 3.235-6.572 6.484-8.451 10.603-1.92 4.206-2.586 9.126-3.533 13.646l-.111.519-3.703 17.108c-1.177 5.434-1.511 13.359-5.812 17.279-4.013 3.658-9.329 1.748-11.218-2.962-1.475-3.676-.006-7.713.868-11.387l6.843-28.767c1.125-4.691 2.353-9.413 4.78-13.628 2.486-4.316 6.13-7.445 9.849-10.647 7.041-6.062 13.506-13.003 18.972-20.518s10.136-15.792 13.411-24.499c1.64-4.359 2.983-8.888 3.91-13.452.881-4.332.874-8.819 1.816-13.105.065-.296.315-.499.601-.589-.068-.191.036-.449.303-.466l20.82-1.338 55.502-3.818 3.267-.236c-.253-26.252-.038-52.51.436-78.772l1.16-72.252c.356-11.951 1.124-23.874 1.978-35.8.874-12.197 2.273-24.291 3.531-36.452zM220.817 665.128c-.222-1.338 1.461-2.166 2.236-.943 8.866 13.974 13.14 29.153 14.942 45.505 1.591 14.433 1.122 29.073.33 43.544l-2.829 46.289-1.533 23.655-3.845 59.301c-.275 4.242-1.238 8.099-4.89 10.071-.462.386-.944.733-1.506 1.033-1.973 1.055-4.59.522-5.731-1.503l.457.301c.399.251-.049-.1-1.342-1.05l-1.098-1.421c-.798-1.199-1.307-2.377-1.512-3.803-.318-2.214.094-4.644.239-6.869l2.52-38.886 5.974-90.698c.804-14.097 1.367-28.207.986-42.328-.38-14.043-1.095-28.324-3.398-42.198zm76.692-260.311l.492-.082c17.609-2.925 36.756-2.378 52.849 6.111.133.07.072.291-.077.284l-5.18-.207c-16.398-.642-32.745-1.022-48.868 2.831l-1.651.397c-5.806 1.417-11.87 3.151-16.534 6.986-4.457 3.666-6.677 9.321-8.811 14.527l-.286.687c-2.165 5.142-4.906 10.018-9.653 13.233-6.148 4.164-13.541 3.654-20.591 4.219-12.411.998-22.559 9.993-27.608 21.001-3.057 6.665-4.361 14.138-4.619 21.427-.133 3.711-.151 7.567.343 11.253.158 1.179 1.615 5.473 2.358 5.37 1.651-.229 3.16.632 3.675 1.952 4.078-3.94 8.274-7.767 12.604-11.455 10.795-9.193 22.422-17.525 34.667-24.685 9.345-5.465 19.202-10.88 29.41-14.973-.809-.017-1.607.144-2.378.545-.338.177-.674-.247-.407-.528 3.215-3.383 7.066-3.864 10.948-2.962l2.49-.761c.414-.12.621.45.283.671l-.954.609c4.235 1.419 8.394 4.208 11.686 6.408 9.457 6.321 17.781 14.047 26.219 21.629l1.534 1.375c7.427 6.632 15.044 13.076 23.482 18.397 4.417 2.785 9.057 5.361 13.924 7.277 4.174 1.644 10.97 2.679 12.925 7.091 1.738 2.111 1.012 4.805-1.023 6.226-3.433 3.777-10.299 1.337-14.389-.237-4.93-1.896-9.707-4.176-14.263-6.85-8.844-5.193-16.999-11.649-24.595-18.516-7.934-7.173-15.418-14.793-23.135-22.191l-9.958-9.686-1.682-1.593c-1.709-1.603-4.144-4.102-6.747-5.614l-14.745 8.732c-6.784 4.189-13.369 8.681-19.852 13.32-12.481 8.931-24.308 18.933-35.288 29.655-20.138 19.662-37.294 42.115-52.282 65.889l-1.138 1.812c-8.517 13.607-16.571 27.654-22.282 42.69-6.283 16.546-9.339 33.945-10.999 51.509-1.648 17.438-2.204 34.963-4.045 52.385-1.889 17.867-5.609 35.34-9.841 52.781l-1.01 4.135c-3.829 15.619-7.781 31.238-9.75 47.226-1.051 8.54-1.683 17.197-1.54 25.806.144 8.66 1.504 17.128 2.602 25.696.421 3.282-2.809 6.022-5.7 6.457-3.324.499-6.179-1.622-7.213-4.71-3.221-9.626-3.806-20.267-3.705-30.371.102-10.258 1.411-20.448 3.253-30.529 3.623-19.829 9.214-39.248 13.891-58.839 4.122-17.269 6.888-34.567 8.379-52.257 1.548-18.353 2.475-36.768 5.299-54.989 2.787-17.989 8.031-35.171 15.94-51.573 7.202-14.934 16.178-28.991 25.59-42.616 11.428-16.545 23.98-32.288 38.011-46.633-1.26-.054-2.554-.461-3.743-1.203-3.636-2.268-5.329-6.704-5.849-10.755-1.219-9.476-.925-19.369 1.512-28.634 3.932-14.946 14.135-28.226 28.922-33.613 3.806-1.387 7.852-1.893 11.886-1.993 3.828-.095 8.008.404 11.701-.809 5.879-1.933 8.399-8.857 10.606-14.105l.102-.241c2.83-6.688 6.227-12.421 12.357-16.597 6.541-4.456 14.735-6.483 22.451-7.792zm167.311 26.45c5.291-1.835 11.907-.169 17.081 1.434 5.765 1.788 11.093 5.079 15.66 8.989a47.25 47.25 0 0 1 11.614 14.9l.269.548c2.57 5.275 5.496 12.517 4.2 18.312a6.01 6.01 0 0 1-.127.476c10.498 5.169 20.194 11.642 28.637 19.847 9.831 9.553 18.156 20.424 25.201 32.168 27.979 46.646 32.903 102.667 36.208 155.862l.824 13.488c1.794 29.125 3.894 58.182 9.349 86.905l.398 2.073c5.83 30.074 14.176 60.377 13.331 91.227-.254 9.244-13.914 9.181-14.31 0-1.491-34.555-9.555-67.918-15.015-101.933-9.608-59.844-4.794-121.54-18.407-180.785-5.342-23.25-13.618-45.802-25.435-66.556-5.838-10.252-12.516-20.159-20.34-29.003-6.731-7.611-13.727-14.935-21.593-21.333-2.514 2.518-7.536 1.235-8.848-2.436-.901-2.522-.639-5.472-1.217-8.114-.537-2.452-1.277-4.883-2.264-7.192-1.966-4.603-4.851-9.022-8.183-12.747-3.598-4.026-7.734-7.371-12.362-10.133-4.66-2.781-9.757-3.611-14.671-5.643-.166-.068-.181-.29 0-.354zm20.558 319.828a.28.28 0 0 1 .47-.195c1.855 1.707 2.976 4.157 4.342 6.257 1.574 2.421 3.228 4.793 4.962 7.103 3.474 4.629 7.341 8.992 11.239 13.266 3.626 3.976 7.49 7.783 11.498 11.372 4.343 3.89 9.21 7.36 13.155 11.666 8.234 8.987 9.564 21.32 11.301 32.901l.19 1.252c1.06 6.873 2.009 13.764 2.864 20.665l1.171 10.082.103 1.067c.303 3.294.384 6.637-1.508 9.515-2.025 3.08-6.63 4.159-9.367 1.206-4.704-5.073-3.822-14.084-4.434-20.61l-1.721-16.169-.326-2.69c-.757-6.123-1.372-12.368-2.772-18.384-1.235-5.298-3.588-9.297-7.448-13.135-3.889-3.866-7.93-7.475-11.519-11.639-3.808-4.416-7.242-9.151-10.336-14.093-2.647-4.227-4.769-8.827-6.712-13.422l-.323-.766c-1.878-4.48-4.976-10.313-4.829-15.249zm67.911-192.463c.041-.625.965-.634.978 0l.341 16.126c.897 43.315.344 86.733 4.69 129.899 2.049 20.353 5.823 40.407 10.191 60.377l6.806 30.632c2.171 9.96 4.499 19.969 6.221 30.022 1.692 9.88 3.208 19.836 3.888 29.844l.084 1.305c.293 4.848 1.691 11.977-.979 16.274-2.892 4.655-8.429 4.739-11.528.295-2.91-4.172-2.187-11.592-2.701-16.569l-1.702-15.203c-1.224-9.868-2.838-19.713-4.515-29.514-3.495-20.409-8.563-40.562-12.304-60.939-3.834-20.88-6.559-41.909-6.674-63.168-.114-21.44 2.155-42.838 3.301-64.231l3.903-65.15zm-204.61-134.725c1.163-3.916 5.267-6.364 9.271-5.264 3.669 1.008 6.698 5.462 5.264 9.272-1.566 4.158-4.301 7.703-6.608 11.482-2.13 3.492-5.238 6.241-7.408 9.671l2.391 2.579 3.61 3.821 4.171 4.32 9.879 9.94c9.883 9.533 19.923 18.754 30.992 26.918 2.52 1.858 5.059 3.705 7.67 5.435l.973.645c1.791 1.173 3.789 2.326 5.953 2.127 5.257-.483 10.007-6.066 13.619-9.541l.189-.181c8.953-8.519 17.243-17.832 24.491-27.847a201.88 201.88 0 0 0 4.684-6.777c-3.504-4.094-2.667-12.084-2.86-17.048-.136-3.49-.147-6.982-.166-10.475l-.009-.704c-.043-2.261-.145-4.43 1.322-6.29.086-.108.263-.104.372-.048 2.009 1.053 2.628 2.817 3.486 4.794l.089.206 3.054 7.157c1.059 2.5 2.03 5.036 3.013 7.566l1.323 3.546.806 2.266.065.058a6.83 6.83 0 0 1 .942.976c1.121.561 2.012 1.583 2.43 3.084.91 3.269-.973 5.934-2.652 8.529-6.823 10.541-14.601 20.586-23.247 29.698-4.294 4.527-8.811 8.851-13.515 12.952l-.822.712c-4.224 3.631-8.811 7.07-14.453 7.92-6.603.993-11.977-2.291-17.032-6.073l-.504-.38c-4.792-3.628-9.487-7.382-14.036-11.31-9.275-8.008-18.098-16.606-25.929-26.039-7.617-9.176-15.147-19.435-19.842-30.476-.286-.672.466-1.376 1.056-.814 2.294 2.183 4.5 4.485 6.681 6.816.06-3.432-.573-6.893-.221-10.346.43-4.198.306-8.835 1.508-12.877z"/><path fill="#fff" d="M507.174 315.723c-1.404-12.339.413-38.128.534-39.695.77-9.906-3.871-49.021-12.644-45.417-14.717-11.651-34.319-14.223-52.648-15.452-38.073-2.553-78.575 3.308-107.974 28.931-14.538 13.306-28.693 32.66-27.555 52.811-13.209 19.101-31.832 45.303-15.373 67.634 5.594 7.134 14.486 9.791 21.514 15.194 14.136 11.402 23.005 27.766 37.275 39.101 37.807 33.975 97.052 38.643 134.197 0 22.674-35.83 27.726-67.428 22.674-103.107-3.397-23.987 2.739 24.071 0 0z"/><path d="M388.933 142.435c10.746-2.22 27.116-5.602 36.25-5.263l5.992 2.948c7.823.313 15.895 5.469 22.72 10.019.392-.394 1.024-.597 1.596-.323 5.288 2.523 12.966 4.592 20.036 6.496 3.776 1.018 7.379 1.988 10.352 2.956 8.501 2.768 17.32 4.595 26.229 5.332 3.352.277 6.221 3.897 4.099 7.143l-1.487 2.339.819-.086 1.639-.17c2.696-.272 5.389 2.606 5.229 5.23-.1 1.651-.278 3.283-.541 4.895 1.027-.022 2.047.132 3.034.549 4.994 2.109 3.974 16.841 3.6 21.367-.518 6.28-2.867 12.933-7.228 17.633 1.759 1.827.522 4.766-.772 7.838-1.101 2.617-2.243 5.331-1.611 7.537.998 3.503 1.553 7.235 1.279 10.881l-.088 1.092c-.079.925-.124 3.182-.183 6.134-.194 9.681-.538 26.837-2.719 29.018l-2.458 8.5V311c-.147 10.672-.884 16.508-1.618 22.324-.733 5.811-1.465 11.601-1.602 22.176 0 10.5-11.427 38.423-22.5 57-11.044 14.618-25.562 27.038-43.5 31.135-9.667 2.211-17.715 3.774-27.5 2.365-1.463-.212-3.071-.36-4.727-.513-3.71-.342-7.66-.706-10.773-1.852-4.983-1.84-9.313-4.547-12.666-8.604-1.586-1.924-1.403-3.125 1.755-2.74 4.775.579 9.135 1.277 13.713 2.69L410 436.5c3.629 1.163 4.801 1.259 7.531 1.483l2.477.218c9.766.946 19.68-.006 29.034-2.968 15.231-4.827 28.349-15.584 36.757-29.1 9.98-16.021 19.483-34.633 20.701-52.633l-.062-9.403-1.156-56.482-.183-3.365c-.291-5.33-.156-10.021-.022-14.729.129-4.471.257-8.957.022-14.021-1.379-.808-3.615-1.509-6.003-2.257-4.125-1.293-8.703-2.728-10.096-5.104-4.416 1.826-9.06 3.144-13.333 4.194-9.898 2.435-20.174 3.026-30.249 1.501-2.717 1.123-5.489 2.11-8.303 2.959l-2.281.994c-6.784 2.902-15.879 5.329-23.041 7.129l-1.759.439c-3.769.929-7.862 1.844-11.873 2.132a17.38 17.38 0 0 1-2.147.658c-3.652.888-7.443 1.168-11.186.855-3.647-.307-6.282-3.992-4.273-7.443.74-1.27 2.047-2.53 3.352-3.789 1.282-1.236 2.563-2.471 3.304-3.713-5.199 2.166-10.567 3.966-15.981 5.493-5.467 1.539-11.011 2.837-16.563 4.031l-4.418.906-4.491.921c-1.43.303-1.626.509-2.133 1.039-.245.255-.562.587-1.125 1.042-1.678 1.346-1.92 2.109-2.445 3.769l-.238.744c-.433 2.499-1.969 7.688-3.635 13.316-2.305 7.783-4.857 16.404-5.081 19.906-.158 2.486-.222 4.978-.287 7.47-.092 3.55-.183 7.099-.547 10.625-.333 3.184-3.751 4.821-6.275 2.597l-.89-.792-.441-.402c-2.159-1.957-4.253-4.031-5.981-6.367a20.73 20.73 0 0 1-.894-1.337c-.045 0-.085-.013-.13-.046l-.479-.36c-5.276-3.927-14.089-9.046-19.233-2.523-1.64 2.078-2.479 4.725-3.175 7.278l-1.223 4.569c-.79 2.982-1.534 5.982-1.969 9.034-.985 6.836-.49 14.716 4.214 20.195 1.879 2.192 4.468 3.758 7.357 4.169 1.407.193 2.799.009 4.192-.175l.61-.08c.848-.105 1.681-.067 2.514-.028.761.035 1.524.071 2.3-.004 2.583-.255 3.711 2.837 2.746 4.781-.522 1.044-1.136 1.944-1.833 2.707.56.483 1.096 1.005 1.611 1.553 1.526.489 2.895 1.539 3.92 2.929.829 1.122 1.258 2.342 1.331 3.627a15.52 15.52 0 0 1 .241.978l1.4 2.271.922 1.473c3.561 5.61 7.515 10.359 12.426 14.834 1.751 1.594 3.557 3.126 5.363 4.658 3.072 2.606 6.144 5.212 8.942 8.121l.524.548c4.141 4.365 8.507 9.648 6.886 15.995-.417 1.631-2.694 2.805-4.181 1.702-2.859-2.122-4.87-4.986-6.892-7.867-1.359-1.936-2.723-3.879-4.353-5.61-2.117-2.249-4.35-4.382-6.582-6.515-2.171-2.074-4.341-4.148-6.406-6.329-3.96-4.175-7.084-8.904-9.438-14.109-.94 1.037-2.309 1.774-4.207 2.061-3.262.489-6.302-1.422-7.724-4.247a24.69 24.69 0 0 1-2.785 1.057c-4.945 1.514-8.056-3.985-6.19-8.049.997-2.179 2.243-4.071 3.79-5.663-4.834-.665-9.753-3.163-12.929-6.281-7.971-7.835-9.066-19.609-7.273-30.079.953-5.551 2.596-11.167 4.73-16.379.371-.907.769-1.82 1.206-2.72-.242-.007-.49-.111-.646-.313-.493-.674-1.022-1.305-1.548-1.932-1.013-1.209-2.014-2.403-2.718-3.855l-.658-1.33c-.791-1.59-1.592-3.201-2.199-4.847-1.598-4.312-2.38-9.178-2.902-13.738-.236-2.042-.525-4.135-.817-6.254-1.045-7.565-2.137-15.477-1.021-22.723.558-3.623 1.004-7.541 1.465-11.588 1.55-13.602 3.266-28.664 9.937-38.889a7.6 7.6 0 0 1-1.344-.9l-.208-.181-.337-.306c-2.471-2.235-2.257-6.425 0-8.689l.712-.715c.903-.896 1.681-1.607 3.139-2.583.216-.144.435-.28.658-.407-.763-1.41-1.028-3.059-.497-4.878 1.853-6.338 10.972-6.114 16.752-3.35 6.394-5.707 13.485-10.661 21.17-14.673 5.076-2.649 10.387-5.75 15.844-8.937 14.222-8.304 29.432-17.186 44.037-20.127l4.105-.842zM307.222 332.05c-3.029-1.408-7.131-3.316-10.28-2.288-1.442.47-1.866 1.996-1.214 3.118h-.052l.135.216c.599.913 1.368 1.531 2.21 2.118l.394.269c-1.056.75-1.865 1.833-2.218 3.216-.566 2.198.353 4.899 2.44 6.001a6.42 6.42 0 0 0 2.687.724c1.335.06 2.448-.555 3.458-1.324l.3-.235c.444-.352.803-.822 1.089-1.33.343.443.679.898 1.014 1.352 2.042 2.767 4.073 5.52 7.766 5.621 2.054.058 4.377-1.579 4.801-3.66a15.83 15.83 0 0 0 .094-.452l.03-.148c.397-1.95.111-4.233-1.487-5.629-3.209-2.792-6.523-5.434-10.417-7.221l-.75-.348zm140.824 70.384c4.931-.686 10.233-3.479 14.942-1.209 2.202 1.06 3.247 4.688 1.758 6.704-2.273 3.08-4.62 3.589-8.31 3.885-2.766.222-5.548.239-8.307-.08l-.702-.086c-4.923-.636-10.04-2.01-13.854-5.319-.78-.677-.381-2.139.621-2.351 4.529-.953 9.267-.905 13.852-1.544zm-5.803-11.354c-.002-.04.059-.04.061 0 .119 2.818.911 5.431 2.375 7.842.02.034-.033.065-.053.031a16.32 16.32 0 0 1-2.383-7.873zm15.542-58.16c4.926 2.995 12.431 9.976 7.132 17.399-6.237 6.545-15.217-.959-19.643-4.353-4.103-2.63-8.713 4.135-4.906 7.206 31.977 23.676 44.955-19.469 19.909-23.772-2.758-.474-3.782 2.594-2.492 3.52zm25.211-33.507c1.157 0 2.263.393 3.271 1.119.991.715 1.889 1.759 2.636 3.06 1.415 2.463 2.3 5.864 2.3 9.624s-.885 7.161-2.3 9.624c-.747 1.301-1.645 2.345-2.636 3.06-1.008.726-2.114 1.119-3.271 1.119s-2.263-.393-3.27-1.119c-.992-.715-1.889-1.759-2.637-3.06-1.415-2.463-2.299-5.864-2.299-9.624s.884-7.161 2.299-9.624c.748-1.301 1.645-2.345 2.637-3.06 1.007-.726 2.114-1.119 3.27-1.119zm-53.564 3.835l.435-.082c2.541-.462 3.825-.307 6.037 1.425 1.663 1.301 1.186 3.864 0 5.233-2.067 2.385-4.086 1.962-6.917 2.053l-.199.007-7.082.199-1.938.012c.069 5.976-3.377 10.526-7.914 13.985-2.933 2.237-6.642-.344-7.689-3.128-.865-2.304-1.051-5.137-.602-7.659.166-.93.513-1.939 1.042-2.8l.15-.231-.025-.33c-.005-.082 0-.161-.002-.242-4.212-.256-8.4-.678-12.587-1.209l-1.395-.181c-3.573-.473-8.821-.625-11.713-2.949-.091-.075-.058-.237.038-.289 1.59-.856 3.203-.807 4.98-.886l.256-.012 5.794-.25 1.934-.06 14.837-.645 2.578-.152c.9-.378 1.856-.603 2.801-.645a6.43 6.43 0 0 1 2.243.298l5.41-.454 1.802-.168c2.543-.242 5.216-.347 7.726-.84zm31.224-44.788c5.435-2.671 12.044-2.736 17.642-.526l.371.151c5.654 2.346 12.467 7.766 10.992 14.516-1.35 6.179-11.041 5.132-11.532-.708-3.129-4.336-10.146-5.287-14.557-2.53-2.675 1.673-4.511 4.489-5.766 7.329-1.07 2.419-1.271 5.405-2.914 7.512-.054.069-.161.081-.238.063-4.9-1.134-5.014-8.92-4.178-12.697 1.214-5.491 5.11-10.617 10.18-13.11z" fill="#000"/></svg>