<svg width="134" height="9" viewBox="0 0 134 9" fill="none" xmlns="http://www.w3.org/2000/svg">
<path d="M2.5 3.00002C2.9 3.00002 2.7 3.00002 4.5 3.00002C6.3 3.00002 7.3 2.80002 11.5 3.00002C15.7 3.20002 19.7 3.60002 25.5 4.00002C31.3 4.40002 34.9 4.60002 40.5 5.00002C46.1 5.40002 47.9 5.80002 53.5 6.00002C59.1 6.20002 62.7 6.00002 68.5 6.00002C74.3 6.00002 77.1 6.00002 82.5 6.00002C87.9 6.00002 90.9 6.00002 95.5 6.00002C100.1 6.00002 102.1 6.00002 105.5 6.00002C108.9 6.00002 109.9 6.00002 112.5 6.00002C115.1 6.00002 116.3 6.00002 118.5 6.00002C120.7 6.00002 121.5 6.00002 123.5 6.00002C125.5 6.00002 126.9 6.20002 128.5 6.00002C130.1 5.80002 130.9 5.20002 131.5 5.00002" stroke="#00FF00" stroke-opacity="0.6" stroke-width="5" stroke-linecap="round"/>
</svg>
